<?xml version="1.0" encoding="UTF-8" standalone="no"?>
<!-- Created with Inkscape (http://www.inkscape.org/) -->

<svg
   width="224"
   height="224.00002"
   viewBox="0 0 224 224.00002"
   version="1.1"
   id="svg1"
   xml:space="preserve"
   xmlns="http://www.w3.org/2000/svg"
   xmlns:svg="http://www.w3.org/2000/svg"><defs
     id="defs1" /><g
     id="g4211"
     transform="translate(282.98047,135.36133)"><path
       d="m -165.32031,88.234375 h -11.31836 a 112,112 0 0 0 5.6582,0.404297 112,112 0 0 0 5.66016,-0.404297 z"
       style="fill:#ebbda9;fill-rule:evenodd;stroke-width:0.999994"
       id="path4210" /><path
       d="m -170.98047,-135.36133 a 112,112 0 0 0 -112,112.000002 112,112 0 0 0 38.35742,84.345703 c 6.95924,-13.621336 14.35051,-26.907627 22.61719,-39.615234 4.71337,-7.245447 8.77864,-17.5286234 17.29297,-18.134766 7.29997,9.774428 22.20523,19.383815 32.79883,24.080078 6.33885,2.810082 13.80924,4.921619 13.83594,-5.378906 h 0.51171 c 3.34142,4.041016 2.7013,13.231787 3.11524,18.701172 1.14931,15.185856 4.17311,30.478424 4.9707,45.654297 a 112,112 0 0 0 90.500001,-109.652344 112,112 0 0 0 -0.07422,-3.085938 c 0.034,-0.15931 0.07422,-0.317002 0.07422,-0.482421 V -131.79297 c 0,-1.97677 -2.475481,-3.56836 -5.550781,-3.56836 h -100.89844 c -0.44423,0 -0.86965,0.0427 -1.2832,0.10547 a 112,112 0 0 0 -4.26758,-0.10547 z"
       style="fill:#ebbda9;fill-rule:evenodd;stroke-width:0.999994"
       id="path4207" /><path
       d="m -149.48047,86.291016 c -0.79759,-15.175873 -3.82139,-30.468441 -4.9707,-45.654297 -0.41394,-5.469385 0.22618,-14.660156 -3.11524,-18.701172 h -0.51171 c -0.0267,10.300525 -7.49709,8.188988 -13.83594,5.378906 -10.5936,-4.696263 -25.49886,-14.30565 -32.79883,-24.080078 -8.51433,0.6061426 -12.5796,10.889319 -17.29297,18.134766 -8.26668,12.707607 -15.65795,25.993898 -22.61719,39.615234 a 112,112 0 0 0 67.98438,27.25 h 11.31836 a 112,112 0 0 0 15.83984,-1.943359 z"
       style="fill:#d57f69"
       id="path4209" /><path
       style="fill:#c96349;stroke:none;stroke-width:1"
       d="m -140.61003,-98.330441 c -0.65806,15.092171 -6.47061,38.136278 -18.96136,47.659612 -0.8899,-2.123375 -1.93688,-4.238911 -3.7415,-5.745101 -11.63749,-9.713011 -25.16105,11.204918 -11.63256,17.53189 -3.58103,4.099072 -8.72497,7.298308 -11.99795,11.440792 -1.7605,2.228195 -2.12038,5.590783 -3.66281,8.03303 -5.34214,8.458625 -11.21738,16.1836583 -14.06245,26.1359164 10.50419,7.5453686 20.53273,15.3062056 32.28554,20.8803366 3.38537,1.605616 11.01046,4.884236 13.67375,0.468981 1.26047,-2.089638 0.54704,-5.184918 0.82169,-7.512654 0.92609,-7.848738 0.92686,-15.7449633 2.04237,-23.5735788 0.29931,-2.1006105 -0.28597,-5.7462668 0.90038,-7.5241162 1.35282,-2.027314 6.98881,-1.564812 9.2102,-1.74421 5.56019,-0.449045 11.85657,-2.316905 15.64137,-6.666046 4.8893,-5.618318 6.88215,-14.241425 7.46364,-21.475861 1.12615,-14.010756 -0.19737,-28.034684 -6.03694,-40.997508 -2.53812,-5.634203 -6.05701,-14.143573 -11.94337,-16.911483 z"
       id="path3478" /><path
       style="fill:#a13d25;stroke:none;stroke-width:1"
       d="m -174.47994,-37.906066 c -3.20723,-2.465697 -5.78917,-5.967225 -5.36432,-10.249379 0.8337,-8.403065 11.35397,-12.645162 17.643,-7.065023 1.58999,1.41076 2.70488,3.11744 3.60785,5.015149 10.89603,-5.084495 14.79158,-25.271973 16.91148,-35.872832 0.63292,-3.164972 3.03575,-9.7875 1.18231,-12.722748 -1.81163,-2.869041 -6.38602,-4.539241 -9.38182,-5.790191 -10.49558,-4.3826 -24.13574,-4.18661 -34.84788,-0.69515 -13.884,4.52528 -25.26291,14.803237 -28.4365,29.457469 -0.81758,3.775287 -1.32444,7.927276 -1.28473,11.786789 0.0162,1.570739 0.81788,4.06819 -0.0364,5.474242 -1.3282,2.186145 -8.76436,2.908879 -11.23991,4.394351 -9.39907,5.639962 -12.85868,17.27205 -10.10109,27.54164 4.59115,17.0980536 25.94494,24.8916136 40.32924,14.569383 5.61078,-4.026318 5.61471,-10.541793 9.88718,-14.889287 3.65771,-3.721944 8.8114,-5.979107 11.13157,-10.954413 z"
       id="path3392" /></g></svg>
